<svg width="150" height="80" viewBox="0 0 150 80" fill="none" xmlns="http://www.w3.org/2000/svg">
<rect x="0.5" y="0.5" width="149" height="79" stroke="#C4C4C4"/>
<g clip-path="url(#clip0_1656_234)">
<path d="M16.795 45.7152L15.3195 46.107L12.1043 41.2214L10.2985 41.1753L10.3866 45.8995L8.93311 46.0148V34.0773L11.7519 33.9851C13.0292 33.9391 14.0202 34.2386 14.7029 34.8378C15.3856 35.46 15.7379 36.2897 15.7379 37.2806C15.7379 37.9489 15.5177 38.5942 15.0993 39.2395C14.6809 39.9078 14.0863 40.4148 13.2935 40.7374V40.7835L16.795 45.7152ZM10.3645 34.93L10.2765 40.3687L12.4787 40.2765C13.2715 40.046 14.2184 39.0781 14.2184 37.6493C14.2184 36.0592 13.2274 35.0222 11.5758 34.9761L10.3645 34.93ZM23.6439 46.107C20.4727 46.107 17.9842 43.6411 17.9842 39.9539C17.9842 36.5662 20.803 33.8008 23.9742 33.8008C27.1674 33.8008 29.6559 36.2897 29.6559 39.9769C29.6339 43.3876 26.6829 46.107 23.6439 46.107ZM23.8641 45.116C26.3526 45.116 28.0924 43.1802 28.0924 40.0921C28.0924 37.0041 26.0663 34.7917 23.754 34.7917C21.2875 34.7917 19.5257 36.7045 19.5257 39.8386C19.5257 42.8576 21.5958 45.116 23.8641 45.116ZM35.8882 45.8995L34.4347 46.0148V40.3456L30.1404 34.1926L31.704 33.9851L35.3156 39.493L39.0373 33.9851L40.2926 34.1926L35.8662 40.4148L35.8882 45.8995ZM50.1585 45.8765L48.639 46.0378L47.5159 42.8806L42.0324 42.9958L40.9092 46.0148L39.654 45.8765L44.5649 33.9851L45.2256 33.8238L50.1585 45.8765ZM44.719 36.0362L42.4508 41.9358L47.1635 42.0279L44.719 36.0362ZM55.2016 45.8995L52.1845 45.9917V34.1004L53.638 33.9851L53.5719 39.0321L53.616 44.9777L58.4608 44.7934L58.3507 45.9226L55.2016 45.8995ZM88.6972 45.8995L87.2438 46.0148V34.9761L82.8393 35.1374L82.9494 33.9851H87.8384L92.9695 33.8699L92.8594 35.0913L88.7192 34.93L88.6312 39.3086L88.6972 45.8995ZM102.725 45.8765L101.206 46.0378L100.083 42.8806L94.5992 42.9958L93.476 46.0148L92.2208 45.8765L97.1317 33.9851L97.7924 33.8238L102.725 45.8765ZM97.2859 36.0362L95.0176 41.9358L99.7303 42.0279L97.2859 36.0362ZM107.768 45.8995L104.751 45.9917V34.1004L106.205 33.9851L106.139 39.009L106.183 44.9547L111.028 44.7703L110.918 45.8995H107.768ZM115.014 45.8995L113.098 45.9917V34.0773L115.828 33.9851H119.22L119.11 35.1374L114.551 34.953L114.441 39.4699L118.405 39.3547L118.163 40.4839L114.419 40.3687L114.529 44.9547L119.594 44.7934L119.484 45.9226H115.014V45.8995ZM123.184 45.8995L121.885 46.0148L121.995 34.1004L123.052 33.9851L130.077 43.2032L129.945 34.1004L131.244 33.9851L131.09 45.8995L130.605 45.9917L123.03 36.3588L123.184 45.8995ZM136.97 46.0148C136.309 46.0148 135.648 45.8765 135.01 45.6C134.371 45.3234 133.887 44.9777 133.534 44.6321L134.239 43.8255C135.12 44.5168 136.067 45.0469 137.344 45.0469C138.753 45.0469 139.722 44.3786 139.722 43.065C139.722 42.3736 139.48 41.8436 139.04 41.5209C138.599 41.1983 137.983 40.8757 137.234 40.553C135.67 39.9078 133.997 39.2395 133.997 37.0502C133.997 35.2987 135.516 33.893 137.586 33.893C138.665 33.893 139.789 34.2156 140.449 34.7226L140.185 35.7596C139.524 35.437 138.247 34.953 137.278 34.953C136.199 34.953 135.296 35.4831 135.296 36.6353C135.296 37.3728 135.538 37.9028 135.979 38.2255C136.419 38.5711 137.036 38.8938 137.762 39.2164C139.304 39.9078 141.022 40.4609 141.022 42.6041C141.044 44.8625 139.084 46.0148 136.97 46.0148Z" fill="#333333"/>
<path d="M64.8696 33.8231V45.968H76.4753V33.8231H64.8696ZM70.6614 45.461C67.7105 45.461 65.3321 42.9721 65.3321 39.884C65.3321 36.796 67.7105 34.3071 70.6614 34.3071C73.6124 34.3071 75.9908 36.796 75.9908 39.884C75.9908 42.9721 73.6124 45.461 70.6614 45.461ZM65.9928 40.875C66.1029 41.4281 66.6314 42.7647 67.5343 42.4421C68.195 42.1886 68.239 41.5433 68.3711 40.8058C68.4813 40.1145 68.6574 38.8009 68.8777 38.5244C68.8997 38.5013 68.8777 38.4783 68.8556 38.4783C68.3271 38.5013 67.9747 39.7458 67.7765 40.3219C67.4022 41.4511 66.257 41.5433 66.0588 40.8519C66.0588 40.8519 65.9928 40.8519 65.9928 40.875ZM75.242 38.9161C75.1099 38.6165 75.0218 38.5013 74.8897 38.2248C74.9998 37.9021 75.1319 37.4643 75.1099 37.2799C75.0218 36.4964 74.0088 37.326 74.229 38.34C74.2951 38.6165 74.3612 38.8239 74.4052 39.0083C74.0969 39.6536 73.9648 39.5383 73.9868 39.3079C74.0088 39.1466 74.0308 38.8239 74.0308 38.8239C74.1189 38.2017 73.8106 38.1556 73.6124 38.2939C73.5023 38.363 73.3481 38.5935 73.2821 38.7318L73.3481 38.4322L72.7976 38.6626L72.6214 39.6075C72.4012 40.1375 72.1589 40.2297 72.0048 40.2067C71.9607 40.1836 71.9167 40.1606 71.8727 40.1375C72.3792 39.6766 72.5553 39.2849 72.5113 39.0083C72.4673 38.7087 72.247 38.7087 72.0929 38.7548C71.6965 38.8931 71.3662 39.3079 71.2781 39.884C71.256 40.0684 71.256 40.2528 71.3001 40.391C70.9477 40.9672 70.9257 40.6445 70.9698 40.4141C71.0799 39.884 71.4322 37.6947 71.4322 37.6947L70.8817 37.9252C70.8817 37.9252 70.5513 39.8379 70.4192 40.5754C70.1549 41.2437 70.0889 40.9902 70.1329 40.7597C70.221 40.2297 70.3531 39.5383 70.3531 39.5383L69.8246 39.7458C69.8246 39.7458 69.7806 39.9071 69.7365 40.1836C69.6705 39.9762 69.5383 39.8379 69.3621 39.8149C69.0318 39.7688 68.6795 40.2297 68.5693 40.7828C68.4592 41.3589 68.6354 41.8659 68.9657 41.889C69.208 41.912 69.4502 41.7046 69.6044 41.382C69.6925 41.5894 69.9127 41.5663 70.0448 41.4741C70.177 41.382 70.3091 41.1515 70.3972 40.9672C70.4412 41.2437 70.6614 41.2437 70.8156 41.1515C71.0578 41.0132 71.2781 40.6906 71.3882 40.5523C71.4763 40.7137 71.6304 40.8058 71.8066 40.7828C72.0488 40.7597 72.3351 40.4371 72.5553 40.0684L72.4673 40.5063L73.0178 40.2758L73.216 39.2157C73.4803 38.5474 73.5684 38.7779 73.5463 38.9853C73.5463 38.9853 73.5243 39.1696 73.4803 39.4692C73.4142 40.0914 73.6785 40.1145 73.8767 39.9993C74.163 39.8149 74.3391 39.4692 74.4933 39.1466C74.6034 39.4231 74.7355 39.6536 74.8456 39.9993C75.6384 42.3268 72.6434 42.0964 71.4542 42.1425C70.3531 42.1886 70.243 43.1795 70.1329 43.94C74.229 43.9861 76.0789 40.8289 75.242 38.9161ZM69.6484 40.6906C69.6264 40.9672 69.4502 41.2667 69.2961 41.2667C69.1419 41.2667 69.0318 41.0363 69.0759 40.7137C69.1199 40.4371 69.252 40.1836 69.4062 40.1836C69.5603 40.1836 69.6704 40.4141 69.6484 40.6906ZM71.8066 39.9532C71.7846 39.884 71.7846 39.8149 71.7846 39.7227C71.8066 39.4462 71.9387 39.1466 72.1149 39.1005C72.181 39.0774 72.247 39.1005 72.247 39.2157C72.247 39.4692 72.0048 39.7688 71.8066 39.9532ZM74.8016 38.0174C74.7796 37.9943 74.7796 37.9713 74.7796 37.9482C74.4492 37.1186 74.8897 37.0034 74.9337 37.349C74.9337 37.5334 74.8897 37.7869 74.8016 38.0174ZM71.234 35.6437C71.168 36.1737 71.1239 37.2799 70.1329 37.4412C68.5033 37.7178 66.3231 38.4552 65.9707 40.1145C65.9707 40.1375 65.9047 40.1375 65.9047 40.1375C65.8606 37.5334 68.0849 35.6437 71.234 35.6437Z" fill="#FF0000"/>
</g>
<defs>
<clipPath id="clip0_1656_234">
<rect width="132.353" height="12.4444" fill="white" transform="translate(8.82349 33.7778)"/>
</clipPath>
</defs>
</svg>
