<svg width="150" height="80" viewBox="0 0 150 80" fill="none" xmlns="http://www.w3.org/2000/svg">
<rect x="0.5" y="0.5" width="149" height="79" stroke="#C4C4C4"/>
<g clip-path="url(#clip0_1656_227)">
<path fill-rule="evenodd" clip-rule="evenodd" d="M87.7014 47.3625H86.3733V32.0449H87.7014V47.3625ZM119.255 32.0449V44.8845L107.395 32.0449V32H106.023V47.3625H107.395V34.3875L119.255 47.3625V47.3169V47.3625H120.627V32.0449H119.255ZM103.013 32.0449V32.0898L88.94 47.3169H90.9752L103.013 33.9371V42.8114H97.0832V44.2082H103.013V47.3169H104.34V32.0449H103.013Z" fill="black"/>
<path fill-rule="evenodd" clip-rule="evenodd" d="M80.7091 40.3783H80.7978C83.0103 40.3783 84.824 38.3514 84.824 36.0993C84.824 33.9371 83.1424 32.1347 81.062 32.0449V32H80.8412H69.9551V47.3625H71.3272V33.3968H80.9739C81.6253 33.4833 82.2229 33.8056 82.6548 34.3032C83.0866 34.8008 83.3231 35.4397 83.3199 36.1C83.3199 37.5417 82.2133 38.9379 80.7531 39.0284H78.8947V40.56H78.9381L82.8769 47.3176H85.0461L80.7091 40.3783ZM61.1923 32L53.8022 32.0449V47.3618H64.9097C67.0336 47.2264 68.6711 45.4241 68.6711 43.2611C68.6711 41.7752 67.9187 40.5137 66.7681 39.7925C67.918 39.0726 68.6711 37.586 68.6711 36.0993C68.6711 33.9371 67.0335 32.1796 64.9537 32.0449V32H61.1923ZM61.1923 45.965H55.1737V33.3968H64.865C65.5163 33.4833 66.1139 33.8056 66.5456 34.3032C66.9774 34.8009 67.2137 35.4397 67.2103 36.1C67.2103 37.5867 66.0157 38.9828 64.5549 39.0284V40.5586C66.015 40.5586 67.2103 41.7752 67.2103 43.2611C67.2103 44.658 66.1484 45.784 64.821 45.965H61.1923Z" fill="black"/>
<path fill-rule="evenodd" clip-rule="evenodd" d="M13.5293 32V47.3169H14.9014L26.9387 34.2977V42.8114H21.0968V44.2082H26.9387V47.3169H28.2668V32H13.5293ZM14.9014 45.2444V40.019H19.7694L14.9014 45.2444ZM14.9014 38.6222V33.3962H25.9648L21.0968 38.6222H14.9014Z" fill="#00ACEC"/>
<path fill-rule="evenodd" clip-rule="evenodd" d="M128.947 32C124.787 32 121.379 35.4237 121.379 39.6591C121.379 43.8925 124.787 47.3625 128.947 47.3625C133.107 47.3625 136.47 43.8925 136.47 39.6591C136.47 35.4237 133.107 32 128.947 32ZM128.947 45.7398C125.672 45.7398 123.061 43.0373 123.061 39.7489C123.061 36.415 125.672 33.7574 128.947 33.7574C132.177 33.7574 134.833 36.415 134.833 39.7489C134.833 43.0373 132.177 45.7398 128.947 45.7398Z" fill="black"/>
<path fill-rule="evenodd" clip-rule="evenodd" d="M48.0929 33.4859V32.0891H33.2673V47.3618H34.5954V40.3327H43.3293L36.896 47.3162H38.9318L50.9251 33.9364V42.8107H45.0392V44.2075H50.9251L51.0131 47.4067H52.3852L52.2972 32.0442H50.9251V32.0891L44.616 38.9365H34.5954V33.4859H48.0929Z" fill="black"/>
</g>
<defs>
<clipPath id="clip0_1656_227">
<rect width="122.941" height="15.4074" fill="white" transform="translate(13.5293 32)"/>
</clipPath>
</defs>
</svg>
