<svg width="150" height="80" viewBox="0 0 150 80" fill="none" xmlns="http://www.w3.org/2000/svg">
<rect x="0.5" y="0.5" width="149" height="79" stroke="#C4C4C4"/>
<g clip-path="url(#clip0_1656_223)">
<path d="M53.8674 49.1258V37.6493H52.4213V42.5876H47.4659V37.6493H46.0198V49.1258H47.4659V43.9308H52.4405V49.1258H53.8674ZM62.467 43.2789C62.467 41.4814 61.6957 40.553 59.3434 40.553C58.4564 40.553 57.4152 40.6913 56.6632 40.9283L56.7982 42.0937C57.4538 41.9555 58.4757 41.8172 59.2469 41.8172C60.5774 41.8172 61.0209 42.1925 61.0209 43.2394V44.5431H58.8613C57.2031 44.5431 56.3547 45.1752 56.3547 46.9135C56.3547 48.395 57.0103 49.3234 58.5335 49.3234C59.5169 49.3234 60.4617 49.0468 61.1944 48.5332L61.2908 49.1653H62.4862L62.467 43.2789ZM61.0401 47.3875C60.4038 47.8024 59.6326 48.0789 58.9192 48.0789C57.9165 48.0789 57.7623 47.7234 57.7623 46.874C57.7623 46.0246 58.0901 45.748 58.9577 45.748H61.0401V47.3875ZM71.2979 49.1258V42.6863C71.2979 41.4024 70.8352 40.553 69.524 40.553C68.5792 40.553 67.2681 40.9678 66.3619 41.4419V37.1159L64.9543 37.3135V49.1456H66.3619V42.8246C67.2488 42.3703 68.5021 41.9555 69.0998 41.9555C69.6204 41.9555 69.8904 42.1727 69.8904 42.7258V49.1456H71.2979V49.1258ZM80.2639 49.1258V42.6863C80.2639 41.4024 79.8011 40.553 78.49 40.553C77.5259 40.553 76.0991 40.9876 75.1928 41.4616L75.0578 40.7505H73.901V49.1456H75.3085V42.8048C76.1955 42.3505 77.4488 41.9555 78.0465 41.9555C78.5671 41.9555 78.837 42.1727 78.837 42.7258V49.1456H80.2639V49.1258ZM83.8695 46.2024V45.511H88.7478V43.753C88.7478 42.0147 88.0922 40.5727 85.6627 40.5727C83.2332 40.5727 82.462 41.9752 82.462 43.7135V46.2221C82.462 48.1184 83.2911 49.3036 85.7013 49.3036C86.7232 49.3036 87.8223 49.1258 88.5935 48.8295L88.42 47.6641C87.5138 47.9011 86.6461 48.0592 85.8363 48.0592C84.2359 48.0592 83.8695 47.5258 83.8695 46.2024ZM83.8695 43.595C83.8695 42.4098 84.3323 41.7777 85.6627 41.7777C86.9932 41.7777 87.3788 42.4493 87.3788 43.595V44.2863H83.8695V43.595ZM102.283 49.1258V42.6863C102.283 41.4024 101.821 40.553 100.51 40.553C99.4876 40.553 98.0993 40.9678 97.116 41.4616C96.8846 40.8888 96.4026 40.553 95.5542 40.553C94.5901 40.553 93.1633 40.9876 92.257 41.4616L92.1221 40.7505H90.9652V49.1456H92.3727V42.8048C93.2597 42.3505 94.513 41.9555 95.1107 41.9555C95.6313 41.9555 95.9012 42.1727 95.9012 42.7258V49.1456H97.3088V42.8048C98.1958 42.3505 99.3719 41.9555 100.047 41.9555C100.567 41.9555 100.837 42.1727 100.837 42.7258V49.1456H102.283V49.1258ZM104.809 40.7505V47.19C104.809 48.474 105.272 49.3234 106.583 49.3234C107.547 49.3234 108.974 48.8888 109.88 48.4147L110.015 49.1258H111.172V40.7308H109.765V47.0715C108.878 47.5258 107.624 47.9209 107.027 47.9209C106.506 47.9209 106.236 47.7036 106.236 47.1505V40.7308L104.809 40.7505ZM105.947 39.4666H107.258V38.0246H105.947V39.4666ZM108.858 39.4666H110.17V38.0246H108.858V39.4666ZM120.215 49.1258V42.6863C120.215 41.4024 119.753 40.553 118.441 40.553C117.497 40.553 116.185 40.9678 115.279 41.4419V37.1159L113.872 37.3135V49.1456H115.279V42.8246C116.166 42.3703 117.419 41.9555 118.017 41.9555C118.538 41.9555 118.808 42.1727 118.808 42.7258V49.1456H120.215V49.1258ZM124.245 49.1258V37.0962L122.838 37.2937V49.1258H124.245ZM127.909 46.2024V45.511H132.787V43.753C132.787 42.0147 132.131 40.5727 129.702 40.5727C127.272 40.5727 126.501 41.9752 126.501 43.7135V46.2221C126.501 48.1184 127.33 49.3036 129.74 49.3036C130.762 49.3036 131.861 49.1258 132.633 48.8295L132.459 47.6641C131.553 47.9011 130.685 48.0592 129.875 48.0592C128.275 48.0592 127.909 47.5258 127.909 46.2024ZM127.909 43.595C127.909 42.4098 128.371 41.7777 129.702 41.7777C131.032 41.7777 131.418 42.4493 131.418 43.595V44.2863H127.909V43.595Z" fill="#6F7072"/>
<path d="M39.734 33.2048C39.599 31.664 38.9434 30.3011 37.8637 29.4122C36.8996 28.6023 35.6656 28.2072 34.4701 28.3653C33.0047 28.5233 31.8093 29.669 31.0573 30.5974C30.2089 31.6245 29.6304 32.7505 29.3219 33.5603C28.5699 32.8887 28.0879 32.0986 27.8565 31.1307C27.6637 30.3011 27.4516 28.6616 27.2974 27.4764C27.1817 26.6863 27.1238 26.0542 27.066 25.8369C26.9117 25.106 26.4297 23.8616 26.1212 23.2097C26.796 23.0714 27.3166 22.8937 27.818 22.3998C28.3193 21.8863 29.1291 21.0961 29.1484 21.0961L29.6304 20.6221L28.9556 20.5628C28.8206 20.5431 25.3885 20.2863 24.81 20.306C24.4051 20.3258 23.9038 20.5431 23.4989 20.9381C23.1711 21.2344 22.7469 21.748 22.4384 22.5776C22.1299 22.6369 19.3341 23.19 19.3341 23.19V23.8023L19.5654 23.8616C20.4331 24.0591 21.5322 24.5332 22.1877 25.027L22.1492 25.0468C21.59 25.4221 20.838 25.9356 20.2017 26.5282C19.3919 27.2789 19.0063 27.9505 19.0641 28.5431C19.1027 28.9579 19.2762 29.2739 19.5654 29.4912C19.7968 29.6492 20.086 29.7282 20.4138 29.7282C20.0282 30.4196 19.8161 30.9529 19.6619 31.4665C19.469 32.1776 19.3919 32.8887 19.4883 33.7776C19.604 35.1406 20.2789 36.5035 21.0501 37.6887H17.0588V47.1505C17.0588 47.9998 17.2324 48.8097 17.5987 49.5208C17.9265 50.1924 18.3893 50.7653 18.9677 51.2591C20.0089 52.1282 21.3972 52.6418 22.6891 52.6418C23.9809 52.6418 25.3692 52.1282 26.4104 51.2591C26.9889 50.785 27.4516 50.1924 27.7794 49.5208C28.1072 48.869 28.2807 48.1579 28.3193 47.4072C28.3964 46.1431 28.8206 44.2665 29.4762 42.8048C30.2089 41.1455 31.1922 40.2764 32.4455 40.1579C33.1204 40.0986 33.7953 40.1974 34.3737 40.4739C34.8557 40.6912 35.3185 41.027 35.6849 41.4418C36.3597 42.1727 36.6875 43.0023 36.7261 43.1801V43.1603L36.9574 43.9307L37.2852 43.2591C37.8058 42.1529 38.5385 40.4147 39.0784 38.3801C39.6761 36.4443 39.869 34.6863 39.734 33.2048ZM21.5129 38.2616L21.6479 38.4394C22.0721 39.0122 22.5155 39.506 22.8819 39.9011L23.711 40.8097C25.0414 42.2319 26.0826 43.3579 26.5647 44.1875C27.1817 45.2542 27.6251 46.3011 27.7794 47.0912C27.7987 47.1702 27.818 47.3282 27.818 47.3875C27.7408 49.0863 26.8732 50.1529 26.1212 50.785C25.1764 51.5751 23.9231 52.0492 22.7662 52.0492C21.59 52.0492 20.356 51.5949 19.4112 50.785C18.6399 50.1332 17.7144 48.9677 17.7144 47.1505V38.3011L21.5129 38.2616ZM22.5155 25.5208L22.6505 25.4221C22.7469 25.5603 22.8048 25.6789 22.8048 25.8171C22.8433 26.2912 22.4191 26.8048 21.8985 27.4764C21.5514 27.911 21.1658 28.4245 20.7802 29.0171C20.4138 29.1159 20.1053 29.0764 19.8932 28.9184C19.7583 28.7998 19.6619 28.6418 19.6426 28.4245C19.604 28.0295 19.9318 27.5159 20.5874 26.9035C21.2237 26.39 21.9756 25.8961 22.5155 25.5208ZM38.5964 38.2418C38.1722 39.8616 37.613 41.3233 37.1117 42.3702C36.9189 41.9752 36.6297 41.5208 36.2247 41.0863C35.5306 40.2961 34.2966 39.4072 32.4455 39.5653C31.655 39.6443 30.9416 39.9801 30.3246 40.5332C29.8233 41.0073 29.3798 41.6986 28.9941 42.548C28.5507 43.5751 28.2422 44.7406 28.0108 45.827C27.7794 45.2147 27.4709 44.5628 27.066 43.8714C26.5454 42.9826 25.4849 41.8369 24.1352 40.3949L23.3061 39.4863C22.4191 38.5184 21.6671 37.5307 21.1273 36.5826C20.5295 35.5356 20.1825 34.548 20.1053 33.6986C20.0282 32.8887 20.086 32.2566 20.2596 31.6048C20.4138 31.0122 20.7031 30.3998 21.2237 29.511C21.59 28.8591 21.9949 28.3455 22.3806 27.8912C22.9976 27.1208 23.4603 26.5085 23.4025 25.7974C23.3446 25.2048 22.8626 24.6517 21.9178 24.1381C21.5129 23.9208 21.0501 23.7233 20.6259 23.5653C21.5322 23.3875 22.7083 23.1505 22.7083 23.1505L22.8819 23.111L22.9397 22.9529C23.3639 21.5505 24.3087 20.9184 24.8293 20.8986C25.1957 20.8789 26.9503 21.0171 28.2229 21.0961C27.9529 21.3529 27.6251 21.6887 27.3745 21.9455C26.9696 22.3603 26.5068 22.4789 25.832 22.6369L25.1764 22.7949L25.427 23.1702C25.562 23.3677 26.2562 25.027 26.4683 25.9554C26.5261 26.1529 26.6032 26.8048 26.6804 27.5356C26.8346 28.7998 27.0467 30.3998 27.2588 31.269C27.548 32.5134 28.165 33.4813 29.2255 34.2912L29.5726 34.548L29.6304 34.3307C29.9197 33.3628 30.7102 31.9406 31.4815 30.9924C32.1563 30.143 33.2554 29.1159 34.5087 28.9579C35.5306 28.8196 36.6104 29.1751 37.4588 29.8863C38.4036 30.6764 39.0013 31.8813 39.117 33.264C39.2712 34.6665 39.0784 36.3455 38.5964 38.2418ZM24.8679 23.6443C24.8293 23.1702 24.4051 22.7949 23.9231 22.8542C23.4603 22.8937 23.094 23.3282 23.1518 23.8221C23.1904 24.2961 23.6146 24.6714 24.0966 24.6122C24.5594 24.5529 24.9064 24.1184 24.8679 23.6443ZM24.2702 23.7035C24.2894 23.8418 24.1737 23.9801 24.0388 23.9998C23.9038 24.0196 23.7688 23.9011 23.7495 23.7628C23.7303 23.6245 23.846 23.4863 23.9809 23.4665C24.1352 23.427 24.2509 23.5258 24.2702 23.7035ZM22.0142 48.2566V48.3949C22.0142 48.5924 21.9949 48.6912 21.6286 48.6912C21.455 48.6912 21.2237 48.6714 21.0308 48.6122L20.973 49.027C21.1465 49.0863 21.3779 49.1258 21.6479 49.1258C22.342 49.1258 22.4962 48.869 22.4962 48.4344V48.1974C22.4962 47.8418 22.3613 47.6048 21.8985 47.585C21.7635 47.585 21.6864 47.5653 21.5514 47.5653V46.9134H22.4577V46.4986H21.0501V47.9603C21.2429 47.9603 21.3972 47.9603 21.6671 47.9801C21.9756 47.9998 22.0142 48.0591 22.0142 48.2566ZM19.1413 49.0665H20.6452V48.6517H20.1246V46.4986H19.7004L19.0641 46.6961L19.1798 47.111L19.6619 46.9727V48.6517H19.1605V49.0665H19.1413ZM22.8819 48.2764V48.4344C22.8819 48.8887 23.094 49.106 23.711 49.106C24.328 49.106 24.5401 48.9282 24.5401 48.4344V48.2764C24.5401 48.0591 24.463 47.9011 24.1737 47.7628C24.4244 47.6245 24.4823 47.4665 24.4823 47.269V47.0912C24.4823 46.6961 24.2894 46.4591 23.7303 46.4591C23.1711 46.4591 22.9783 46.6961 22.9783 47.0912V47.269C22.9783 47.4665 23.0554 47.6245 23.2868 47.7628C22.959 47.9011 22.8819 48.0591 22.8819 48.2764ZM24.0195 47.269C24.0195 47.4072 23.9809 47.4665 23.711 47.585C23.441 47.4665 23.4025 47.427 23.4025 47.269V47.111C23.4025 46.9529 23.4603 46.8739 23.711 46.8739C23.9616 46.8739 24.0195 46.9727 24.0195 47.111V47.269ZM23.3446 48.3159C23.3446 48.1579 23.3832 48.0789 23.711 47.9406C24.0388 48.0789 24.0773 48.1381 24.0773 48.3159V48.4344C24.0773 48.6319 23.9809 48.6912 23.711 48.6912C23.441 48.6912 23.3446 48.6122 23.3446 48.4344V48.3159ZM25.697 46.4986L24.7908 48.0393V48.4739H25.8898V49.0468H26.3526V48.4739H26.6611V48.0591H26.3526V46.4789H25.697V46.4986ZM25.2728 48.0789L25.8898 46.9529V48.0789H25.2728Z" fill="#E1001A"/>
</g>
<defs>
<clipPath id="clip0_1656_223">
<rect width="115.882" height="32.5926" fill="white" transform="translate(17.0588 20.1482)"/>
</clipPath>
</defs>
</svg>
